<svg width="250" height="47" viewBox="0 0 250 47" fill="none" xmlns="http://www.w3.org/2000/svg">
<path d="M125.183 9.6981L122.148 12.7336L125.183 15.7691L128.219 12.7336L125.183 9.6981Z" stroke="white" stroke-width="2" stroke-miterlimit="10"/>
<path d="M125.183 27.6505L118.645 34.189L125.183 40.7274L131.722 34.189L125.183 27.6505Z" stroke="white" stroke-width="2" stroke-miterlimit="10"/>
<mask id="path-3-inside-1_23_1" fill="white">
<path d="M249.588 25.0756C247.424 25.17 245.26 25.213 243.101 25.2816C240.937 25.3332 238.774 25.3761 236.615 25.4061L230.128 25.4791L223.642 25.5049H223.29L223.036 25.2516L220.508 22.7231H221.723L214.605 29.8407L213.995 30.4502L213.386 29.8407L208.861 25.3203H210.089L207.964 27.4452V26.2175L210.025 28.2781H208.797L212.905 24.1698V25.4018L208.655 21.1519H209.891L205.783 25.2602L205.526 25.5177H205.161L159.047 25.5349L159.678 25.2731L153.02 31.9442L152.384 32.5795L151.749 31.9442L132.349 12.5619L122.652 2.87287L122.39 2.66252L122.351 2.63247L122.33 2.62817L122.291 2.61959C122.265 2.611 122.244 2.60242 122.223 2.58524C122.167 2.55949 122.072 2.54661 121.999 2.51656C121.918 2.50368 121.836 2.50368 121.755 2.4908C121.42 2.48651 121.111 2.61959 120.866 2.85999L118.445 5.28546L113.598 10.1364V8.83137L135.578 30.7937H134.255L140.476 24.5647V25.8912L134.341 19.761H135.672L132.036 23.4014V22.0663L143.884 33.906H142.541L154.977 21.461V22.8132L145.911 13.7553H147.271L144.271 16.756L144.275 15.3952L150.259 21.4567L150.933 22.1393L150.255 22.8218L138.136 34.9492L132.079 41.015L129.048 44.0458L127.533 45.5611L127.344 45.75L127.249 45.8445L127.224 45.8702L127.125 45.9604L127.073 46.0033C126.919 46.1192 126.855 46.2137 126.541 46.3854C126.412 46.4584 126.271 46.5356 126.142 46.5871L125.768 46.703C125.519 46.7889 125.253 46.7803 124.996 46.8061C124.481 46.7803 123.953 46.6859 123.502 46.4154C123.261 46.3038 123.068 46.1278 122.871 45.9647C122.755 45.8702 122.725 45.8273 122.652 45.7586L122.463 45.5697L120.948 44.0543L117.917 41.0236L111.86 34.9578L99.7408 22.8304L99.0625 22.1478L99.7365 21.4653L105.721 15.4037L105.725 16.7646L102.724 13.7639H104.085L95.0186 22.8218V21.4696L107.455 33.9146H106.111L117.96 22.0749V23.4014L114.319 19.7567H115.65L109.516 25.8869V24.5604L115.736 30.7894H114.414L136.393 8.82707V10.1321L131.547 5.28116L129.125 2.85569C128.645 2.35772 127.829 2.36201 127.344 2.87287L117.646 12.5619L98.2554 31.9442L97.6201 32.5795L96.9847 31.9442L90.3222 25.2773L90.9533 25.5392L44.8393 25.522H44.4744L44.2168 25.2645L40.1085 21.1562H41.3449L37.095 25.4061V24.1741L41.2032 28.2824H39.9755L42.036 26.2218V27.4495L39.9111 25.3246H41.1388L36.6142 29.8407L36.0046 30.4502L35.395 29.8407L28.286 22.7274H29.5009L26.9724 25.2559L26.7191 25.5092H26.3671L19.8763 25.4791L13.3897 25.4061C11.2261 25.3761 9.06253 25.3332 6.90322 25.2816C4.73532 25.213 2.57601 25.17 0.412403 25.0756C0.176295 25.067 -0.00829797 24.8652 0.000287765 24.6291C0.0088735 24.4059 0.189174 24.2299 0.412403 24.217C2.57601 24.1226 4.73961 24.0796 6.89893 24.0109C9.06253 23.9594 11.2261 23.9165 13.3854 23.8865L19.872 23.8135L26.3585 23.7877L25.7575 24.041L28.286 21.5125L28.8956 20.9029L29.5052 21.5125L36.6184 28.6215H35.395L39.9154 24.0968L40.5293 23.4829L41.1431 24.0968L43.2681 26.2218L43.882 26.8357L43.2681 27.4495L41.2075 29.5101L40.5936 30.124L39.9798 29.5101L35.8715 25.4018L35.2533 24.788L35.8715 24.1698L40.1214 19.9198L40.7396 19.3017L41.3578 19.9198L45.466 24.0281L44.8479 23.7705L90.9619 23.7534H91.331L91.5929 24.0152L98.2597 30.6778H96.989L116.371 11.2826L126.06 1.58501C126.601 1.02693 127.425 0.653453 128.237 0.657746C128.439 0.666332 128.645 0.687796 128.846 0.713553C129.044 0.769361 129.237 0.820875 129.435 0.893854C129.641 0.99259 129.868 1.11708 130.036 1.23299L130.203 1.37036L130.285 1.43905L130.327 1.47339L130.349 1.49056L130.439 1.57213L132.865 3.9933L137.715 8.83995L138.368 9.49247L137.715 10.145L115.753 32.1245L115.092 32.7856L114.431 32.1245L108.202 25.9041L107.541 25.243L108.202 24.5776L114.332 18.4431L114.998 17.7777L115.663 18.4431L119.308 22.0834L119.973 22.7488L119.299 23.4014L107.459 35.2497L106.79 35.9237L106.116 35.2497L93.6707 22.8175L92.9924 22.1393L93.6707 21.461L102.729 12.3944L103.407 11.7119L104.089 12.3944L107.09 15.3952L107.768 16.0734L107.094 16.756L101.114 22.8218L101.11 21.4567L113.238 33.5755L119.303 39.6327L122.334 42.6635L123.85 44.1788L124.038 44.3677C124.094 44.4235 124.18 44.5137 124.21 44.5266C124.292 44.5781 124.352 44.6639 124.446 44.694C124.609 44.8056 124.811 44.8185 125 44.8442C125.094 44.8185 125.197 44.8442 125.288 44.8013C125.335 44.7841 125.378 44.7755 125.429 44.7627C125.464 44.7455 125.477 44.7326 125.507 44.724C125.524 44.7584 125.713 44.5867 125.841 44.4879L125.893 44.445C125.962 44.3806 125.811 44.518 125.833 44.5008L125.846 44.4879L125.871 44.4622L125.966 44.3677L126.155 44.1788L127.67 42.6635L130.701 39.6327L136.767 33.5755L148.894 21.4567L148.89 22.8218L142.91 16.756L142.236 16.0734L142.914 15.3952L145.915 12.3944L146.597 11.7119L147.276 12.3944L156.334 21.461L157.012 22.1393L156.334 22.8175L143.884 35.2497L143.21 35.9237L142.541 35.2497L130.701 23.4014L130.036 22.7317L130.701 22.0663L134.346 18.4259L135.011 17.7605L135.676 18.4259L141.807 24.5604L142.468 25.2258L141.807 25.8869L135.578 32.1073L134.917 32.7684L134.255 32.1073L112.293 10.1278L111.641 9.4753L112.293 8.82278L117.144 3.97613L119.57 1.55496C120.132 0.984004 120.956 0.631989 121.767 0.64916C121.969 0.666332 122.175 0.679211 122.373 0.713553C122.57 0.773654 122.759 0.812289 122.965 0.90244C123.073 0.953954 123.176 1.00976 123.279 1.06986L123.429 1.16001L123.502 1.20723L123.545 1.24158L123.712 1.37895L123.794 1.44763L123.837 1.48198L123.927 1.56354L123.944 1.58071L133.633 11.2783L153.015 30.6735H151.745L158.411 24.0109L158.673 23.7491H159.042L205.156 23.7663L204.538 24.0238L208.647 19.9156L209.265 19.2974L209.883 19.9156L214.133 24.1655L214.751 24.7837L214.133 25.3975L210.025 29.5058L209.411 30.1197L208.797 29.5058L206.736 27.4452L206.122 26.8314L206.736 26.2175L208.861 24.0925L209.475 23.4786L210.089 24.0925L214.609 28.6172H213.386L220.499 21.5082L221.109 20.8986L221.718 21.5082L224.247 24.0367L223.642 23.7834L230.128 23.8092L236.615 23.8822C238.778 23.9122 240.942 23.9551 243.101 24.0067C245.265 24.0753 247.428 24.1183 249.588 24.2127C249.824 24.2213 250.008 24.4231 250 24.6592C249.991 24.891 249.811 25.067 249.588 25.0756Z"/>
</mask>
<path d="M249.588 25.0756C247.424 25.17 245.26 25.213 243.101 25.2816C240.937 25.3332 238.774 25.3761 236.615 25.4061L230.128 25.4791L223.642 25.5049H223.29L223.036 25.2516L220.508 22.7231H221.723L214.605 29.8407L213.995 30.4502L213.386 29.8407L208.861 25.3203H210.089L207.964 27.4452V26.2175L210.025 28.2781H208.797L212.905 24.1698V25.4018L208.655 21.1519H209.891L205.783 25.2602L205.526 25.5177H205.161L159.047 25.5349L159.678 25.2731L153.02 31.9442L152.384 32.5795L151.749 31.9442L132.349 12.5619L122.652 2.87287L122.39 2.66252L122.351 2.63247L122.33 2.62817L122.291 2.61959C122.265 2.611 122.244 2.60242 122.223 2.58524C122.167 2.55949 122.072 2.54661 121.999 2.51656C121.918 2.50368 121.836 2.50368 121.755 2.4908C121.42 2.48651 121.111 2.61959 120.866 2.85999L118.445 5.28546L113.598 10.1364V8.83137L135.578 30.7937H134.255L140.476 24.5647V25.8912L134.341 19.761H135.672L132.036 23.4014V22.0663L143.884 33.906H142.541L154.977 21.461V22.8132L145.911 13.7553H147.271L144.271 16.756L144.275 15.3952L150.259 21.4567L150.933 22.1393L150.255 22.8218L138.136 34.9492L132.079 41.015L129.048 44.0458L127.533 45.5611L127.344 45.75L127.249 45.8445L127.224 45.8702L127.125 45.9604L127.073 46.0033C126.919 46.1192 126.855 46.2137 126.541 46.3854C126.412 46.4584 126.271 46.5356 126.142 46.5871L125.768 46.703C125.519 46.7889 125.253 46.7803 124.996 46.8061C124.481 46.7803 123.953 46.6859 123.502 46.4154C123.261 46.3038 123.068 46.1278 122.871 45.9647C122.755 45.8702 122.725 45.8273 122.652 45.7586L122.463 45.5697L120.948 44.0543L117.917 41.0236L111.86 34.9578L99.7408 22.8304L99.0625 22.1478L99.7365 21.4653L105.721 15.4037L105.725 16.7646L102.724 13.7639H104.085L95.0186 22.8218V21.4696L107.455 33.9146H106.111L117.96 22.0749V23.4014L114.319 19.7567H115.65L109.516 25.8869V24.5604L115.736 30.7894H114.414L136.393 8.82707V10.1321L131.547 5.28116L129.125 2.85569C128.645 2.35772 127.829 2.36201 127.344 2.87287L117.646 12.5619L98.2554 31.9442L97.6201 32.5795L96.9847 31.9442L90.3222 25.2773L90.9533 25.5392L44.8393 25.522H44.4744L44.2168 25.2645L40.1085 21.1562H41.3449L37.095 25.4061V24.1741L41.2032 28.2824H39.9755L42.036 26.2218V27.4495L39.9111 25.3246H41.1388L36.6142 29.8407L36.0046 30.4502L35.395 29.8407L28.286 22.7274H29.5009L26.9724 25.2559L26.7191 25.5092H26.3671L19.8763 25.4791L13.3897 25.4061C11.2261 25.3761 9.06253 25.3332 6.90322 25.2816C4.73532 25.213 2.57601 25.17 0.412403 25.0756C0.176295 25.067 -0.00829797 24.8652 0.000287765 24.6291C0.0088735 24.4059 0.189174 24.2299 0.412403 24.217C2.57601 24.1226 4.73961 24.0796 6.89893 24.0109C9.06253 23.9594 11.2261 23.9165 13.3854 23.8865L19.872 23.8135L26.3585 23.7877L25.7575 24.041L28.286 21.5125L28.8956 20.9029L29.5052 21.5125L36.6184 28.6215H35.395L39.9154 24.0968L40.5293 23.4829L41.1431 24.0968L43.2681 26.2218L43.882 26.8357L43.2681 27.4495L41.2075 29.5101L40.5936 30.124L39.9798 29.5101L35.8715 25.4018L35.2533 24.788L35.8715 24.1698L40.1214 19.9198L40.7396 19.3017L41.3578 19.9198L45.466 24.0281L44.8479 23.7705L90.9619 23.7534H91.331L91.5929 24.0152L98.2597 30.6778H96.989L116.371 11.2826L126.06 1.58501C126.601 1.02693 127.425 0.653453 128.237 0.657746C128.439 0.666332 128.645 0.687796 128.846 0.713553C129.044 0.769361 129.237 0.820875 129.435 0.893854C129.641 0.99259 129.868 1.11708 130.036 1.23299L130.203 1.37036L130.285 1.43905L130.327 1.47339L130.349 1.49056L130.439 1.57213L132.865 3.9933L137.715 8.83995L138.368 9.49247L137.715 10.145L115.753 32.1245L115.092 32.7856L114.431 32.1245L108.202 25.9041L107.541 25.243L108.202 24.5776L114.332 18.4431L114.998 17.7777L115.663 18.4431L119.308 22.0834L119.973 22.7488L119.299 23.4014L107.459 35.2497L106.79 35.9237L106.116 35.2497L93.6707 22.8175L92.9924 22.1393L93.6707 21.461L102.729 12.3944L103.407 11.7119L104.089 12.3944L107.09 15.3952L107.768 16.0734L107.094 16.756L101.114 22.8218L101.11 21.4567L113.238 33.5755L119.303 39.6327L122.334 42.6635L123.85 44.1788L124.038 44.3677C124.094 44.4235 124.18 44.5137 124.21 44.5266C124.292 44.5781 124.352 44.6639 124.446 44.694C124.609 44.8056 124.811 44.8185 125 44.8442C125.094 44.8185 125.197 44.8442 125.288 44.8013C125.335 44.7841 125.378 44.7755 125.429 44.7627C125.464 44.7455 125.477 44.7326 125.507 44.724C125.524 44.7584 125.713 44.5867 125.841 44.4879L125.893 44.445C125.962 44.3806 125.811 44.518 125.833 44.5008L125.846 44.4879L125.871 44.4622L125.966 44.3677L126.155 44.1788L127.67 42.6635L130.701 39.6327L136.767 33.5755L148.894 21.4567L148.89 22.8218L142.91 16.756L142.236 16.0734L142.914 15.3952L145.915 12.3944L146.597 11.7119L147.276 12.3944L156.334 21.461L157.012 22.1393L156.334 22.8175L143.884 35.2497L143.21 35.9237L142.541 35.2497L130.701 23.4014L130.036 22.7317L130.701 22.0663L134.346 18.4259L135.011 17.7605L135.676 18.4259L141.807 24.5604L142.468 25.2258L141.807 25.8869L135.578 32.1073L134.917 32.7684L134.255 32.1073L112.293 10.1278L111.641 9.4753L112.293 8.82278L117.144 3.97613L119.57 1.55496C120.132 0.984004 120.956 0.631989 121.767 0.64916C121.969 0.666332 122.175 0.679211 122.373 0.713553C122.57 0.773654 122.759 0.812289 122.965 0.90244C123.073 0.953954 123.176 1.00976 123.279 1.06986L123.429 1.16001L123.502 1.20723L123.545 1.24158L123.712 1.37895L123.794 1.44763L123.837 1.48198L123.927 1.56354L123.944 1.58071L133.633 11.2783L153.015 30.6735H151.745L158.411 24.0109L158.673 23.7491H159.042L205.156 23.7663L204.538 24.0238L208.647 19.9156L209.265 19.2974L209.883 19.9156L214.133 24.1655L214.751 24.7837L214.133 25.3975L210.025 29.5058L209.411 30.1197L208.797 29.5058L206.736 27.4452L206.122 26.8314L206.736 26.2175L208.861 24.0925L209.475 23.4786L210.089 24.0925L214.609 28.6172H213.386L220.499 21.5082L221.109 20.8986L221.718 21.5082L224.247 24.0367L223.642 23.7834L230.128 23.8092L236.615 23.8822C238.778 23.9122 240.942 23.9551 243.101 24.0067C245.265 24.0753 247.428 24.1183 249.588 24.2127C249.824 24.2213 250.008 24.4231 250 24.6592C249.991 24.891 249.811 25.067 249.588 25.0756Z" fill="white" stroke="white" stroke-width="2" mask="url(#path-3-inside-1_23_1)"/>
</svg>
