<svg width="250" height="24" viewBox="0 0 250 24" fill="none" xmlns="http://www.w3.org/2000/svg">
<g id="decoration 4 2">
<path id="Vector" d="M60.0674 16.5242L0 15.7075L60.0674 14.8909C60.5048 14.8868 60.8667 15.2461 60.8746 15.6953C60.8786 16.1444 60.5287 16.516 60.0913 16.5242C60.0833 16.5242 60.0714 16.5242 60.0674 16.5242Z" fill="white"/>
<path id="Vector_2" d="M189.933 14.8911L250 15.7077L189.933 16.5244C189.495 16.5284 189.133 16.1691 189.125 15.72C189.121 15.2708 189.471 14.8993 189.909 14.8911C189.921 14.8911 189.929 14.8911 189.933 14.8911Z" fill="white"/>
<path id="Vector_3" d="M133.682 23.9269C133.07 23.9269 132.462 23.6901 131.996 23.2124L126.092 17.1489C125.161 16.1935 125.161 14.6378 126.092 13.6864L129.861 9.81564C130.31 9.35424 130.911 9.09701 131.547 9.09701C132.183 9.09701 132.784 9.35016 133.233 9.81564L133.937 10.5384L135.289 9.15009L128.394 2.07404C128.084 1.75555 127.579 1.75555 127.269 2.07404L126.123 3.24998L128.163 5.34462C129.094 6.30007 129.094 7.85574 128.163 8.81119L124.998 12.0614L121.833 8.81119C120.902 7.85574 120.902 6.30007 121.833 5.34462L123.873 3.24998L122.727 2.07404C122.425 1.76372 121.904 1.76372 121.602 2.07404L114.707 9.15417L116.059 10.5424L116.763 9.81972C117.693 8.86427 119.208 8.86427 120.139 9.81972L123.908 13.6905C124.358 14.1519 124.608 14.7685 124.608 15.4218C124.608 16.0751 124.362 16.6916 123.908 17.153L118.007 23.2124C117.077 24.1678 115.566 24.1678 114.636 23.2124L107.828 16.2221L105.788 18.3167C104.866 19.264 103.358 19.2721 102.428 18.3289L101.855 17.7491C101.398 17.2878 101.148 16.6712 101.144 16.0138C101.14 15.3564 101.39 14.7358 101.843 14.2744L103.887 12.1757L102.842 11.1018C102.531 10.7833 102.026 10.7833 101.716 11.1018L97.1354 15.8056C96.6861 16.267 96.0856 16.5242 95.4494 16.5242H60.0674C59.63 16.5242 59.2722 16.1567 59.2722 15.7076C59.2722 15.2584 59.63 14.891 60.0674 14.891H95.4494C95.6602 14.891 95.863 14.8052 96.0101 14.6501L100.591 9.9463C101.521 8.99085 103.036 8.99085 103.967 9.9463L105.013 11.0202L109.088 6.83496C109.538 6.37357 110.138 6.11633 110.774 6.11633C111.411 6.11633 112.011 6.36948 112.46 6.83496L113.59 7.99457L120.485 0.91443C120.934 0.453038 121.535 0.195801 122.171 0.195801C122.807 0.195801 123.407 0.448954 123.857 0.91443L125.002 2.09037L126.147 0.91443C127.078 -0.0410203 128.593 -0.0410203 129.523 0.91443L136.418 7.99457L137.548 6.83496C137.997 6.37357 138.597 6.11633 139.234 6.11633C139.87 6.11633 140.47 6.36948 140.92 6.83496L144.995 11.0202L146.041 9.9463C146.972 8.99085 148.483 8.99085 149.417 9.9463L153.998 14.6501C154.149 14.8052 154.348 14.891 154.563 14.891H189.944C190.382 14.891 190.74 15.2584 190.74 15.7076C190.74 16.1567 190.382 16.5242 189.944 16.5242H154.563C153.926 16.5242 153.326 16.2711 152.877 15.8056L148.284 11.1018C147.974 10.7833 147.469 10.7833 147.158 11.1018L146.113 12.1757L148.157 14.2744C148.61 14.7399 148.856 15.3564 148.856 16.0138C148.856 16.6712 148.602 17.2878 148.145 17.7491L147.572 18.3289C146.642 19.2681 145.134 19.264 144.212 18.3167L142.172 16.2221L135.364 23.2124C134.903 23.686 134.291 23.9269 133.682 23.9269ZM131.547 10.7303C131.336 10.7303 131.134 10.816 130.986 10.9712L127.217 14.842C126.907 15.1604 126.907 15.679 127.217 15.9975L133.118 22.0568C133.428 22.3753 133.933 22.3753 134.243 22.0568L141.051 15.0665L136.414 10.3056L135.066 11.6939L136.756 13.4292C137.687 14.3847 137.687 15.9403 136.756 16.8958L135.702 17.9737C134.772 18.9292 133.257 18.9292 132.327 17.9737L131.201 16.8182C130.271 15.8627 130.271 14.3071 131.201 13.3516L132.816 11.6939L132.112 10.9712C131.961 10.816 131.758 10.7303 131.547 10.7303ZM108.953 15.0665L115.761 22.0568C116.071 22.3753 116.576 22.3753 116.886 22.0568L122.787 15.9975C122.938 15.8423 123.022 15.6382 123.022 15.4218C123.022 15.2054 122.938 14.9971 122.787 14.846L119.018 10.9752C118.707 10.6568 118.202 10.6568 117.892 10.9752L117.188 11.698L118.803 13.3557C119.733 14.3112 119.733 15.8668 118.803 16.8223L117.677 17.9778C117.228 18.4392 116.628 18.6964 115.991 18.6964C115.355 18.6964 114.755 18.4433 114.305 17.9778L113.256 16.8999C112.806 16.4385 112.556 15.8219 112.556 15.1686C112.556 14.5153 112.802 13.8988 113.256 13.4374L114.946 11.702L113.594 10.3138L108.953 15.0665ZM105.009 13.3312L102.965 15.4299C102.814 15.5851 102.73 15.7892 102.73 16.0097C102.73 16.2302 102.814 16.4344 102.969 16.5895L103.541 17.1693C103.852 17.4837 104.353 17.4797 104.663 17.1653L106.703 15.0706L105.009 13.3312ZM143.297 15.0665L145.337 17.1612C145.643 17.4756 146.148 17.4797 146.459 17.1653L147.027 16.5855C147.178 16.4303 147.262 16.2261 147.266 16.0057C147.266 15.7852 147.182 15.581 147.031 15.4258L144.987 13.3271L143.297 15.0665ZM116.063 12.8453L114.373 14.5806C114.063 14.8991 114.063 15.4177 114.373 15.7362L115.423 16.8141C115.725 17.1244 116.246 17.1203 116.548 16.8141L117.673 15.6586C117.984 15.3401 117.984 14.8215 117.673 14.5031L116.063 12.8453ZM133.937 12.8453L132.323 14.5031C132.012 14.8215 132.012 15.3401 132.323 15.6586L133.448 16.8141C133.758 17.1326 134.263 17.1326 134.573 16.8141L135.623 15.7362C135.933 15.4177 135.933 14.8991 135.623 14.5806L133.937 12.8453ZM106.134 12.1757L107.824 13.911L112.46 9.15009L111.331 7.99048C111.029 7.68016 110.508 7.68016 110.206 7.99048L106.134 12.1757ZM137.536 9.15009L142.172 13.911L143.862 12.1757L139.786 7.99048C139.484 7.68016 138.963 7.68016 138.661 7.99048L137.536 9.15009ZM125.002 4.40142L122.962 6.49606C122.652 6.81454 122.652 7.3331 122.962 7.65158L125.002 9.74622L127.042 7.65158C127.352 7.3331 127.352 6.81454 127.042 6.49606L125.002 4.40142Z" fill="white"/>
</g>
</svg>
