<svg width="250" height="24" viewBox="0 0 250 24" fill="none" xmlns="http://www.w3.org/2000/svg">
<path d="M60.0674 16.5243L0 15.7077L60.0674 14.891C60.5048 14.8869 60.8667 15.2463 60.8746 15.6954C60.8786 16.1445 60.5287 16.5161 60.0913 16.5243C60.0833 16.5243 60.0714 16.5243 60.0674 16.5243Z" fill="#CC9900"/>
<path d="M189.933 14.8911L250 15.7077L189.933 16.5244C189.495 16.5284 189.133 16.1691 189.125 15.72C189.121 15.2708 189.471 14.8993 189.909 14.8911C189.921 14.8911 189.929 14.8911 189.933 14.8911Z" fill="#CC9900"/>
<path d="M133.682 23.927C133.07 23.927 132.462 23.6902 131.996 23.2125L126.092 17.149C125.161 16.1936 125.161 14.6379 126.092 13.6866L129.861 9.81576C130.31 9.35437 130.911 9.09713 131.547 9.09713C132.183 9.09713 132.784 9.35028 133.233 9.81576L133.937 10.5385L135.289 9.15021L128.394 2.07416C128.084 1.75568 127.579 1.75568 127.269 2.07416L126.123 3.2501L128.163 5.34474C129.094 6.30019 129.094 7.85586 128.163 8.81131L124.998 12.0615L121.833 8.81131C120.902 7.85586 120.902 6.30019 121.833 5.34474L123.873 3.2501L122.727 2.07416C122.425 1.76384 121.904 1.76384 121.602 2.07416L114.707 9.15429L116.059 10.5426L116.763 9.81984C117.693 8.86439 119.208 8.86439 120.139 9.81984L123.908 13.6906C124.358 14.152 124.608 14.7686 124.608 15.4219C124.608 16.0752 124.362 16.6917 123.908 17.1531L118.007 23.2125C117.077 24.1679 115.566 24.1679 114.636 23.2125L107.828 16.2222L105.788 18.3168C104.866 19.2641 103.358 19.2723 102.428 18.3291L101.855 17.7493C101.398 17.2879 101.148 16.6713 101.144 16.0139C101.14 15.3566 101.39 14.7359 101.843 14.2745L103.887 12.1758L102.842 11.1019C102.531 10.7835 102.026 10.7835 101.716 11.1019L97.1354 15.8057C96.6861 16.2671 96.0856 16.5243 95.4494 16.5243H60.0674C59.63 16.5243 59.2722 16.1568 59.2722 15.7077C59.2722 15.2586 59.63 14.8911 60.0674 14.8911H95.4494C95.6602 14.8911 95.863 14.8053 96.0101 14.6502L100.591 9.94642C101.521 8.99097 103.036 8.99097 103.967 9.94642L105.013 11.0203L109.088 6.83508C109.538 6.37369 110.138 6.11645 110.774 6.11645C111.411 6.11645 112.011 6.3696 112.46 6.83508L113.59 7.99469L120.485 0.914552C120.934 0.45316 121.535 0.195923 122.171 0.195923C122.807 0.195923 123.407 0.449076 123.857 0.914552L125.002 2.09049L126.147 0.914552C127.078 -0.0408982 128.593 -0.0408982 129.523 0.914552L136.418 7.99469L137.548 6.83508C137.997 6.37369 138.597 6.11645 139.234 6.11645C139.87 6.11645 140.47 6.3696 140.92 6.83508L144.995 11.0203L146.041 9.94642C146.972 8.99097 148.483 8.99097 149.417 9.94642L153.998 14.6502C154.149 14.8053 154.348 14.8911 154.563 14.8911H189.944C190.382 14.8911 190.74 15.2586 190.74 15.7077C190.74 16.1568 190.382 16.5243 189.944 16.5243H154.563C153.926 16.5243 153.326 16.2712 152.877 15.8057L148.284 11.1019C147.974 10.7835 147.469 10.7835 147.158 11.1019L146.113 12.1758L148.157 14.2745C148.61 14.74 148.856 15.3566 148.856 16.0139C148.856 16.6713 148.602 17.2879 148.145 17.7493L147.572 18.3291C146.642 19.2682 145.134 19.2641 144.212 18.3168L142.172 16.2222L135.364 23.2125C134.903 23.6861 134.291 23.927 133.682 23.927ZM131.547 10.7304C131.336 10.7304 131.134 10.8161 130.986 10.9713L127.217 14.8421C126.907 15.1606 126.907 15.6791 127.217 15.9976L133.118 22.057C133.428 22.3754 133.933 22.3754 134.243 22.057L141.051 15.0667L136.414 10.3057L135.066 11.694L136.756 13.4293C137.687 14.3848 137.687 15.9404 136.756 16.8959L135.702 17.9738C134.772 18.9293 133.257 18.9293 132.327 17.9738L131.201 16.8183C130.271 15.8629 130.271 14.3072 131.201 13.3517L132.816 11.694L132.112 10.9713C131.961 10.8161 131.758 10.7304 131.547 10.7304ZM108.953 15.0667L115.761 22.057C116.071 22.3754 116.576 22.3754 116.886 22.057L122.787 15.9976C122.938 15.8424 123.022 15.6383 123.022 15.4219C123.022 15.2055 122.938 14.9972 122.787 14.8462L119.018 10.9754C118.707 10.6569 118.202 10.6569 117.892 10.9754L117.188 11.6981L118.803 13.3558C119.733 14.3113 119.733 15.8669 118.803 16.8224L117.677 17.9779C117.228 18.4393 116.628 18.6966 115.991 18.6966C115.355 18.6966 114.755 18.4434 114.305 17.9779L113.256 16.9C112.806 16.4386 112.556 15.822 112.556 15.1687C112.556 14.5154 112.802 13.8989 113.256 13.4375L114.946 11.7022L113.594 10.3139L108.953 15.0667ZM105.009 13.3313L102.965 15.4301C102.814 15.5852 102.73 15.7894 102.73 16.0099C102.73 16.2303 102.814 16.4345 102.969 16.5897L103.541 17.1695C103.852 17.4839 104.353 17.4798 104.663 17.1654L106.703 15.0707L105.009 13.3313ZM143.297 15.0667L145.337 17.1613C145.643 17.4757 146.148 17.4798 146.459 17.1654L147.027 16.5856C147.178 16.4304 147.262 16.2263 147.266 16.0058C147.266 15.7853 147.182 15.5811 147.031 15.426L144.987 13.3272L143.297 15.0667ZM116.063 12.8454L114.373 14.5808C114.063 14.8992 114.063 15.4178 114.373 15.7363L115.423 16.8142C115.725 17.1245 116.246 17.1205 116.548 16.8142L117.673 15.6587C117.984 15.3402 117.984 14.8217 117.673 14.5032L116.063 12.8454ZM133.937 12.8454L132.323 14.5032C132.012 14.8217 132.012 15.3402 132.323 15.6587L133.448 16.8142C133.758 17.1327 134.263 17.1327 134.573 16.8142L135.623 15.7363C135.933 15.4178 135.933 14.8992 135.623 14.5808L133.937 12.8454ZM106.134 12.1758L107.824 13.9111L112.46 9.15021L111.331 7.9906C111.029 7.68029 110.508 7.68029 110.206 7.9906L106.134 12.1758ZM137.536 9.15021L142.172 13.9111L143.862 12.1758L139.786 7.9906C139.484 7.68029 138.963 7.68029 138.661 7.9906L137.536 9.15021ZM125.002 4.40154L122.962 6.49618C122.652 6.81466 122.652 7.33322 122.962 7.6517L125.002 9.74635L127.042 7.6517C127.352 7.33322 127.352 6.81466 127.042 6.49618L125.002 4.40154Z" fill="#CC9900"/>
</svg>
