<svg width="44" height="44" viewBox="0 0 44 44" fill="none" xmlns="http://www.w3.org/2000/svg">
<g id="002-paypal-logo-in-rectangular-black-card" clip-path="url(#clip0_30_571)">
<g id="Group">
<g id="Group_2">
<path id="Vector" d="M9.38158 19.2423C9.20433 19.1262 8.9404 19.0674 8.59365 19.0674L8.29721 19.0689C8.10294 19.0674 7.90402 19.2237 7.8661 19.4126L7.59288 20.5891C7.55031 20.7795 7.67182 20.935 7.86842 20.935H8.08978C8.58127 20.935 8.96207 20.8352 9.23529 20.6339C9.50851 20.4343 9.6486 20.1502 9.64241 19.7826C9.64396 19.5395 9.5565 19.3576 9.38158 19.2423Z" fill="white"/>
</g>
</g>
<g id="Group_3">
<g id="Group_4">
<path id="Vector_2" d="M14.219 21.9536C14.1656 21.9552 13.7562 22.0016 13.5488 22.0271C13.3166 22.0604 13.1153 22.1069 12.952 22.1618L12.5681 22.4234C12.4783 22.5364 12.4358 22.6804 12.4358 22.8654L12.6107 23.2044C12.7291 23.2709 12.904 23.3035 13.1269 23.3035C13.274 23.3035 13.4334 23.2679 13.6006 23.1997L13.9567 23.0163L14.0975 22.829C14.1533 22.6107 14.2686 22.1254 14.2817 22.0651L14.219 21.9536Z" fill="white"/>
</g>
</g>
<g id="Group_5">
<g id="Group_6">
<path id="Vector_3" d="M42.5898 7.69287H1.12539C0.503096 7.69287 0 8.19674 0 8.81826V34.8972C0 35.5187 0.503096 36.0234 1.12539 36.0234H42.5898C43.2121 36.0234 43.7152 35.5195 43.7152 34.898V8.81826C43.7152 8.19674 43.2121 7.69287 42.5898 7.69287ZM10.4365 21.4359C9.82043 21.8895 8.96285 22.1155 7.85449 22.117H7.59598C7.39706 22.117 7.20279 22.2734 7.16177 22.4607L6.85062 23.8059C6.8065 23.9978 6.61223 24.1511 6.41563 24.1511H5.51006C5.31347 24.1511 5.1904 23.9932 5.23684 23.8059L6.51006 18.2618C6.5565 18.0714 6.74923 17.9189 6.94582 17.9158L8.83746 17.915C9.24613 17.9189 9.59985 17.9436 9.90635 17.9994C10.2082 18.0566 10.4714 18.1526 10.6943 18.2888C10.9079 18.4235 11.0805 18.6039 11.1889 18.8221C11.3096 19.0404 11.363 19.3136 11.363 19.6387C11.363 20.3817 11.0573 20.9823 10.4365 21.4359ZM16.0573 20.7285L16.0232 20.9614L15.3622 23.819C15.3235 23.9909 15.1533 24.1371 14.9729 24.158L14.9605 24.1627H14.8297H14.1347H14.1184L14.1153 24.1596C13.9427 24.1433 13.8359 23.997 13.8731 23.8206V23.819L13.8746 23.8136L13.9087 23.6681L13.904 23.6627L13.5627 23.8879L13.1912 24.0954L12.7531 24.2455C12.6184 24.278 12.4288 24.2974 12.1842 24.2974C11.798 24.2974 11.4745 24.1913 11.2299 23.9723C10.9868 23.7486 10.8615 23.463 10.8615 23.1132C10.8615 22.7416 10.9474 22.4274 11.12 22.1658C11.2988 21.9057 11.5542 21.7029 11.8994 21.5512C12.2206 21.4049 12.6068 21.2966 13.048 21.2354C13.4985 21.1704 13.87 21.1232 14.3847 21.0907L14.5147 21.0102L14.531 20.8825C14.531 20.6859 14.4396 20.5505 14.2577 20.4707C14.0735 20.3933 13.7964 20.3546 13.4342 20.3546C13.1881 20.3515 12.8785 20.4019 12.5851 20.4684C12.2779 20.5381 12.1935 20.5837 12.0433 20.6286C11.9737 20.6526 11.8057 20.6642 11.8684 20.3732L11.9791 19.9173C11.9791 19.9173 12.0333 19.5729 12.3777 19.4978C12.5441 19.4607 12.5704 19.4537 12.8421 19.4119C13.2098 19.3554 13.5735 19.3268 13.9381 19.3268C14.6757 19.3268 15.2159 19.4227 15.5573 19.6155C15.9002 19.8074 16.0751 20.1077 16.0735 20.511L16.0573 20.7285ZM17.5132 26.3585L16.5751 26.3601C16.38 26.3601 16.3158 26.2053 16.435 26.0149L17.2376 24.6155C17.2376 24.6155 17.3019 24.5358 17.2446 24.0791C17.1207 23.254 16.5046 19.7463 16.5046 19.7463C16.4598 19.5566 16.5805 19.4011 16.7755 19.4011L17.5875 19.3995C17.8359 19.3995 18.0356 19.5628 18.0805 19.7548L18.4845 22.1875L18.6347 22.189C18.7608 21.9653 20.0581 19.7393 20.0581 19.7393C20.1819 19.552 20.4327 19.3933 20.6277 19.3933C20.6277 19.3933 21.5 19.3957 21.7144 19.3933C22.0364 19.3887 21.6896 19.9104 21.6896 19.9104L18.0797 26.0149C17.9636 26.2053 17.7067 26.3585 17.5132 26.3585ZM26.8916 21.4599C26.2732 21.9111 25.4118 22.1395 24.3034 22.1395H24.0449C23.8498 22.1364 23.6548 22.295 23.6099 22.4823L23.3034 23.8299C23.2585 24.0179 23.0604 24.1727 22.8684 24.1704L21.9605 24.1727C21.7678 24.1735 21.6409 24.0172 21.6873 23.8291L22.9613 18.2819C23.0077 18.0938 23.1981 17.9405 23.3947 17.9375L25.2887 17.9359C25.695 17.9375 26.0526 17.9661 26.3529 18.0195C26.6587 18.0752 26.9218 18.1712 27.1416 18.3082C27.3576 18.4467 27.5271 18.624 27.6401 18.8438C27.7562 19.0605 27.8127 19.3345 27.8142 19.6596C27.8142 20.4018 27.5039 21.0009 26.8916 21.4599ZM32.5093 20.7323L32.476 20.9669L31.8135 23.8221C31.7763 23.9947 31.6053 24.141 31.4272 24.1627L31.4149 24.1673H31.2848C31.0975 24.1673 30.7028 24.1673 30.589 24.1673H30.5728L30.5712 24.1627C30.3955 24.1464 30.2872 24.0009 30.3297 23.8237L30.3282 23.8214L30.332 23.8183L30.3622 23.6727L30.3568 23.6658L30.0178 23.8941L29.644 24.1008L29.2067 24.2486C29.072 24.2834 28.8816 24.2981 28.6393 24.302C28.2523 24.302 27.9319 24.1921 27.6858 23.9746C27.4412 23.7532 27.315 23.4661 27.315 23.1147C27.315 22.7455 27.4009 22.4297 27.5743 22.1697C27.7515 21.9096 28.0108 21.7076 28.3529 21.5543C28.6765 21.4073 29.065 21.3005 29.5039 21.2385C29.9512 21.1735 30.3228 21.1263 30.8413 21.0946L30.9714 21.0125L30.9853 20.8848C30.9853 20.6898 30.8955 20.5528 30.7113 20.4738C30.5271 20.3957 30.25 20.357 29.8893 20.357C29.6416 20.3554 29.3313 20.4049 29.0387 20.4707C28.733 20.5419 28.6502 20.5861 28.5008 20.631C28.4249 20.6534 28.2616 20.6666 28.3235 20.3755L28.4342 19.9204C28.4342 19.9204 28.4861 19.5752 28.832 19.5009C29 19.4645 29.0271 19.456 29.298 19.4166C29.6633 19.3577 30.0294 19.3291 30.394 19.3291C31.1285 19.3291 31.668 19.4266 32.0124 19.6193C32.3576 19.8113 32.5302 20.1101 32.5302 20.5133L32.5093 20.7323ZM35.4118 18.3275L34.1981 23.8237L34.1556 23.8887C34.0836 24.0435 33.9303 24.1689 33.7639 24.1689H32.9218L32.9063 24.1495C32.7461 24.1248 32.6416 23.9955 32.6796 23.8268L32.678 23.8229L32.7144 23.6642L33.8491 18.5079L33.8893 18.3283L33.935 18.2579C34.0085 18.1062 34.1587 17.9831 34.3251 17.9831H35.1355C35.3328 17.9831 35.4512 18.1371 35.4094 18.326L35.4118 18.3275ZM37.0201 17.7331H36.7167V18.1364L36.719 18.2447L36.7399 18.3175L36.7879 18.3639L36.8808 18.3786L36.9567 18.3678L37.0132 18.3508H37.0201V18.4831L36.9296 18.5009L36.8437 18.5079L36.6378 18.4344L36.5673 18.2022V17.7331H36.4652V17.6077H36.5673V17.3562H36.7167V17.6077H37.0201V17.7331ZM38.4868 17.9181V18.4885H38.3406V17.9854L38.3313 17.8779L38.3119 17.7927L38.2608 17.7424L38.1625 17.7246L38.0395 17.7563L37.9133 17.8361L37.9156 17.8794L37.9172 17.9258V18.4901H37.7701V17.987L37.7639 17.8779L37.743 17.7935L37.6935 17.7432L37.5937 17.7254L37.4721 17.7556L37.3491 17.8322V18.4901H37.2036V17.6085H37.3491V17.7068L37.4899 17.617L37.6355 17.5845L37.7887 17.6209L37.8831 17.7262L38.0457 17.617L38.2043 17.5845L38.4187 17.672L38.4884 17.9181H38.4868Z" fill="white"/>
</g>
</g>
<g id="Group_7">
<g id="Group_8">
<path id="Vector_4" d="M30.6718 21.958C30.6184 21.9572 30.2105 22.0052 30.0062 22.0315C29.7717 22.0648 29.5712 22.1105 29.4094 22.1662C29.2438 22.2312 29.1091 22.3187 29.0217 22.4278C28.935 22.5408 28.8916 22.6848 28.8916 22.8706L29.0689 23.2088C29.1819 23.2761 29.3545 23.3086 29.5844 23.3086C29.7291 23.3086 29.8885 23.273 30.055 23.2057L30.4087 23.0223L30.5542 22.835C30.6084 22.6144 30.726 22.1306 30.7353 22.0702L30.6718 21.958Z" fill="white"/>
</g>
</g>
<g id="Group_9">
<g id="Group_10">
<path id="Vector_5" d="M25.8297 19.2631C25.6509 19.1462 25.3909 19.089 25.0433 19.0874L24.7485 19.089C24.5534 19.0874 24.3553 19.2453 24.315 19.4334L24.041 20.6091C23.9969 20.7979 24.1231 20.9558 24.3189 20.9543H24.5441C25.0341 20.9543 25.4141 20.8537 25.6881 20.6571C25.959 20.4551 26.0967 20.1733 26.0952 19.8026C26.0906 19.5611 26.0062 19.3792 25.8297 19.2631Z" fill="white"/>
</g>
</g>
</g>
<defs>
<clipPath id="clip0_30_571">
<rect width="43.7152" height="43.7152" fill="white"/>
</clipPath>
</defs>
</svg>
