<svg width="45" height="44" viewBox="0 0 45 44" fill="none" xmlns="http://www.w3.org/2000/svg">
<g id="003-webmoney-pay-card" clip-path="url(#clip0_30_602)">
<g id="Group">
<g id="Group_2">
<path id="Vector" d="M43.3514 7.69287H1.887C1.26471 7.69287 0.761612 8.19674 0.761612 8.81826V34.898C0.761612 35.5195 1.26471 36.0234 1.887 36.0234H43.3514C43.9737 36.0234 44.4768 35.5195 44.4768 34.898V8.81826C44.4768 8.19674 43.9737 7.69287 43.3514 7.69287ZM41.1517 20.3206L40.5488 20.8647L40.0046 20.2602L40.6084 19.7161L41.1517 20.3206ZM38.0464 19.7935L37.2299 18.8864L38.137 18.0698L38.9536 18.9769L38.0464 19.7935ZM38.9721 19.8933L39.7895 20.7997L38.8824 21.6162L38.0658 20.7099L38.9721 19.8933ZM37.3088 19.593L36.0998 20.6813L35.0124 19.4723L36.2214 18.384L37.3088 19.593ZM37.0851 20.4467L38.1734 21.6557L36.9644 22.7432L35.8762 21.5342L37.0851 20.4467ZM37.945 22.5365L39.0333 23.7455L37.8243 24.8353L36.7361 23.6263L37.945 22.5365ZM38.8406 22.6255L39.7477 21.8082L40.565 22.7153L39.6579 23.5319L38.8406 22.6255ZM40.3808 18.5234L39.7763 19.0675L39.2322 18.463L39.8367 17.9189L40.3808 18.5234ZM7.10062 23.8748H6.47369L5.68499 20.9808H5.64397L4.87849 23.8748H4.25155L3.31192 19.7633H3.96208L4.61146 22.8314H4.65248L5.40635 19.7633H5.9226L6.7291 22.8314H6.77013L7.36223 19.7633H8.04102L7.10062 23.8748ZM10.6981 22.5365H8.80805C8.80805 23.2316 9.09211 23.5404 9.68963 23.5404C10.0023 23.5404 10.2926 23.4297 10.6115 23.2385V23.6789C10.3506 23.8291 10.0023 23.946 9.58514 23.946C8.61068 23.946 8.21053 23.343 8.21053 22.4258C8.21053 21.5443 8.65712 20.9073 9.52709 20.9073C10.2523 20.9073 10.6989 21.3771 10.6989 22.3237L10.6981 22.5365ZM12.3568 23.9452C12.0495 23.9452 11.5735 23.8461 11.2252 23.6611V19.6132L11.8282 19.4684V21.1217C12.0031 21.0288 12.298 20.9073 12.6122 20.9073C13.3313 20.9073 13.7198 21.4065 13.7198 22.3345C13.7198 23.4189 13.1981 23.9452 12.3568 23.9452ZM18.3498 23.8748H18.3483H17.7221V20.8933H17.6703L16.4868 23.8748H16.1161L14.9327 20.963H14.8808V23.8748H14.3591V19.7633H15.0604L16.3599 23.0056H16.3893L17.6308 19.7633H18.3498V23.8748ZM20.3096 23.9452C19.5155 23.9452 18.9868 23.4166 18.9868 22.4251C18.9868 21.4096 19.5441 20.9065 20.3096 20.9065C21.0751 20.9065 21.6324 21.4111 21.6324 22.4251C21.6324 23.4189 21.1045 23.9452 20.3096 23.9452ZM24.6192 23.8748H24.0163V21.908C24.0163 21.4506 23.791 21.3693 23.4938 21.3693C23.2616 21.3693 22.9659 21.4738 22.7864 21.5783V23.8748H22.1834V21.3345C22.4443 21.1782 22.9954 20.9057 23.6625 20.9057C24.3584 20.9057 24.6192 21.1782 24.6192 21.7757V23.8748ZM27.6471 22.5365H25.7562C25.7562 23.2316 26.0402 23.5404 26.6393 23.5404C26.952 23.5404 27.2423 23.4297 27.5604 23.2385V23.6789C27.2988 23.8291 26.952 23.946 26.5333 23.946C25.5588 23.946 25.1602 23.343 25.1602 22.4258C25.1602 21.5443 25.6068 20.9073 26.476 20.9073C27.202 20.9073 27.6486 21.3771 27.6486 22.3237L27.6471 22.5365ZM29.4737 23.9049C29.1834 24.7045 28.8297 25.1224 28.1641 25.1224V24.6472C28.5588 24.6472 28.8011 24.3345 28.9412 23.9049L27.8282 21.004H28.4659L29.2082 23.1387H29.243L29.904 21.004H30.5248L29.4737 23.9049ZM39.3088 26.2788C38.5697 26.7006 37.7129 26.9413 36.8034 26.9413C34.0039 26.9413 31.7198 24.658 31.7198 21.8585C31.7198 19.059 34.0039 16.7749 36.8034 16.7749C37.6006 16.7749 38.3576 16.9607 39.031 17.2904C39.137 17.3407 39.2423 17.3964 39.3468 17.4568L38.8793 17.8755L38.1765 17.1488L36.9899 18.2076L36.2864 17.4382L34.0751 19.4305L35.4923 20.9932L34.935 21.4823L36.3313 23.0466L35.7771 23.5358L37.7724 25.7563L38.9551 24.6666L39.9783 25.8353C39.7755 25.9916 39.5542 26.1402 39.3088 26.2788ZM40.4551 25.3624L39.6378 24.4568L40.5449 23.6395L41.3615 24.5458L40.4551 25.3624ZM41.3204 22.6596L40.7763 22.0551L41.3808 21.511L41.9249 22.1155L41.3204 22.6596Z" fill="white"/>
</g>
</g>
<g id="Group_3">
<g id="Group_4">
<path id="Vector_2" d="M20.3096 21.3125C19.9272 21.3125 19.596 21.6422 19.596 22.4255C19.596 23.2204 19.8978 23.5393 20.3096 23.5393C20.7214 23.5393 21.0232 23.2204 21.0232 22.4255C21.0232 21.6414 20.7036 21.3125 20.3096 21.3125Z" fill="white"/>
</g>
</g>
<g id="Group_5">
<g id="Group_6">
<path id="Vector_3" d="M12.4551 21.3589C12.2245 21.3589 12.0557 21.4224 11.8235 21.5501V23.4471C12.0093 23.5284 12.2113 23.54 12.3568 23.54C12.7864 23.54 13.1115 23.273 13.1115 22.3333C13.1115 21.5965 12.8437 21.3589 12.4551 21.3589Z" fill="white"/>
</g>
</g>
<g id="Group_7">
<g id="Group_8">
<path id="Vector_4" d="M26.4582 21.2949C26.1037 21.2949 25.8313 21.5674 25.7663 22.1471H27.096C27.0673 21.5387 26.7709 21.2949 26.4582 21.2949Z" fill="white"/>
</g>
</g>
<g id="Group_9">
<g id="Group_10">
<path id="Vector_5" d="M9.5093 21.2949C9.15558 21.2949 8.88236 21.5674 8.81889 22.1471H10.1471C10.1184 21.5387 9.82276 21.2949 9.5093 21.2949Z" fill="white"/>
</g>
</g>
</g>
<defs>
<clipPath id="clip0_30_602">
<rect width="43.7152" height="43.7152" fill="white" transform="translate(0.761612)"/>
</clipPath>
</defs>
</svg>
